<?xml version="1.0" standalone="no"?>
<!DOCTYPE svg PUBLIC "-//W3C//DTD SVG 20010904//EN"
 "http://www.w3.org/TR/2001/REC-SVG-20010904/DTD/svg10.dtd">
<svg version="1.0" xmlns="http://www.w3.org/2000/svg"
 width="700.000000pt" height="700.000000pt" viewBox="0 0 700.000000 700.000000"
 preserveAspectRatio="xMidYMid meet">
<metadata>
Created by potrace 1.14, written by Peter Selinger 2001-2017
</metadata>
<g transform="translate(0.000000,700.000000) scale(0.100000,-0.100000)"
fill="#000000" stroke="none">
<path d="M0 3500 l0 -3500 3500 0 3500 0 0 3500 0 3500 -3500 0 -3500 0 0
-3500z m4760 2755 c164 -25 312 -88 435 -185 165 -132 270 -343 291 -590 8
-93 -3 -87 -21 11 -35 192 -96 331 -181 417 -36 35 -43 27 -42 -46 1 -37 -4
-78 -11 -90 -6 -12 -11 -28 -10 -35 1 -6 -3 -25 -9 -40 -7 -16 -9 -34 -5 -40
4 -6 8 -45 9 -87 1 -41 7 -104 12 -140 5 -36 7 -69 3 -75 -3 -5 -7 -35 -7 -65
-4 -134 -18 -276 -28 -282 -8 -5 -7 -8 2 -8 6 0 12 -5 12 -11 0 -5 -6 -7 -12
-3 -7 4 -4 -2 6 -14 11 -12 14 -22 9 -22 -6 0 -10 -15 -9 -32 2 -19 7 -32 14
-31 6 2 9 -4 6 -12 -4 -8 -11 -15 -18 -16 -6 0 -3 -4 8 -8 17 -7 17 -8 2 -24
-15 -14 -15 -17 -2 -17 10 0 17 -14 20 -42 11 -82 13 -207 4 -216 -4 -4 -10
-30 -12 -56 -2 -26 -6 -50 -9 -53 -8 -7 3 -65 14 -79 5 -6 6 -14 2 -18 -4 -4
0 -4 10 0 9 3 18 11 18 18 2 22 5 32 26 101 30 97 52 176 123 455 23 92 31
128 60 280 23 119 26 62 5 -87 -30 -215 -197 -897 -214 -876 -42 51 -166 190
-210 235 l-55 58 47 187 c57 231 103 458 117 581 21 189 -27 330 -157 453
-104 100 -201 134 -383 133 -183 -1 -312 -37 -508 -140 -305 -161 -503 -262
-1046 -535 -308 -154 -570 -288 -583 -296 -92 -60 93 95 566 476 146 117 365
288 486 379 369 276 531 375 715 436 188 62 338 78 510 51z m-2165 -30 c145
-16 163 -19 390 -70 168 -37 530 -131 551 -143 13 -7 -272 -264 -300 -270 -8
-2 -66 10 -128 27 -328 88 -617 136 -757 128 -82 -5 -104 -10 -169 -43 -88
-43 -207 -154 -240 -224 -62 -130 -68 -302 -17 -509 24 -101 43 -143 171 -395
208 -406 754 -1494 754 -1503 0 -4 -8 4 -17 17 -9 14 -39 52 -68 85 -184 216
-644 792 -805 1010 -233 313 -339 490 -394 655 -93 279 -85 532 25 768 68 148
148 243 274 329 201 136 405 175 730 138z m1606 -1002 c30 -37 144 -178 254
-313 110 -135 218 -268 240 -296 22 -28 87 -111 145 -185 215 -275 441 -593
518 -729 46 -83 98 -226 123 -340 18 -88 21 -123 16 -244 -7 -173 -26 -251
-101 -401 -84 -169 -217 -298 -382 -371 -72 -32 -237 -71 -334 -79 -94 -8
-334 17 -490 52 -63 14 -136 30 -162 35 -68 15 -60 27 10 16 31 -5 66 -11 77
-12 11 -2 31 -6 45 -10 51 -14 139 -13 145 1 2 8 0 11 -5 8 -6 -3 -10 -1 -10
5 0 7 -7 10 -15 6 -8 -3 -15 -1 -15 4 0 6 -11 10 -25 10 -14 0 -34 9 -45 20
-11 11 -26 17 -34 14 -8 -3 -17 0 -21 5 -3 6 -11 9 -16 6 -5 -4 -9 -2 -9 4 0
6 -19 16 -42 23 -24 6 -63 22 -87 35 -24 13 -48 23 -53 23 -4 0 -27 9 -51 19
-47 21 -107 41 -121 40 -5 0 -12 4 -16 10 -3 6 -25 13 -48 15 -66 5 -172 -53
-172 -96 0 -15 -5 -17 -27 -12 -16 4 -29 7 -30 8 -1 1 67 63 151 138 l153 136
89 -25 c104 -29 386 -93 529 -119 64 -12 145 -19 225 -19 114 1 131 3 191 28
134 56 247 180 289 313 27 90 27 250 0 385 -20 99 -67 231 -98 279 -39 60
-857 1680 -849 1680 2 0 28 -30 58 -67z m-616 -672 c97 -43 159 -142 159 -256
0 -119 -64 -221 -166 -265 -42 -18 -65 -21 -132 -18 -71 3 -88 8 -133 36 -92
58 -139 155 -130 267 7 90 47 154 140 225 55 41 182 47 262 11z m-1711 -430
l136 -149 -45 -177 c-88 -344 -133 -620 -119 -733 15 -126 68 -226 163 -314
99 -92 202 -128 361 -128 171 1 359 51 510 135 41 23 296 154 565 290 270 136
622 315 783 397 162 82 296 148 298 146 3 -4 -179 -156 -386 -323 -48 -38
-107 -86 -131 -106 -612 -498 -989 -763 -1210 -851 -143 -58 -230 -73 -409
-72 -199 1 -273 17 -425 94 -281 143 -418 353 -457 705 -20 176 5 361 108 785
45 189 115 450 120 450 1 0 64 -67 138 -149z m1963 -1717 c-3 -3 -12 -4 -19
-1 -8 3 -5 6 6 6 11 1 17 -2 13 -5z m40 -10 c-3 -3 -12 -4 -19 -1 -8 3 -5 6 6
6 11 1 17 -2 13 -5z m83 -14 c12 -8 11 -10 -5 -9 -11 1 -31 5 -45 9 -24 8 -24
8 5 9 17 0 37 -4 45 -9z m-1288 -961 l243 -300 3 213 c2 131 -1 227 -8 250
-12 43 -47 73 -101 90 -27 8 -39 17 -39 30 0 17 10 18 188 16 152 -2 187 -6
187 -17 0 -8 -19 -19 -43 -26 -64 -19 -90 -41 -102 -84 -6 -22 -11 -188 -13
-397 l-2 -359 -50 0 -50 0 -261 324 c-144 178 -271 333 -283 345 l-22 21 3
-270 c4 -319 5 -324 99 -362 29 -12 55 -29 57 -37 3 -14 -19 -16 -182 -16
-102 0 -187 4 -190 9 -7 11 12 27 44 35 101 28 104 37 108 360 2 148 1 284 -3
303 -8 45 -56 97 -110 120 -42 17 -54 31 -38 46 3 4 77 7 164 7 l158 0 243
-301z m1134 291 c116 -21 175 -57 206 -128 16 -35 19 -59 15 -103 -14 -157
-137 -241 -374 -256 l-103 -6 0 -139 c0 -77 5 -148 10 -158 6 -12 34 -26 66
-36 32 -9 53 -21 51 -27 -5 -17 -469 -17 -474 0 -3 7 8 15 24 18 15 4 44 12
63 19 l35 12 3 358 c3 407 7 386 -79 406 -37 9 -49 17 -49 31 0 18 11 19 273
19 150 0 300 -5 333 -10z m1084 -105 c0 -132 -10 -145 -54 -71 -36 61 -73 104
-106 121 -18 9 -76 17 -154 21 l-126 7 0 -181 c0 -114 4 -183 10 -187 6 -4 45
-3 88 1 69 6 80 10 107 39 17 18 37 51 43 74 8 24 19 41 27 41 13 0 15 -29 15
-185 0 -115 -4 -185 -10 -185 -5 0 -23 29 -39 64 -37 82 -60 96 -161 103 l-80
6 0 -171 c0 -163 1 -172 22 -191 12 -12 36 -24 54 -27 39 -7 64 -31 42 -39 -7
-3 -113 -4 -236 -3 -251 3 -276 11 -152 49 l45 14 3 359 c3 404 6 385 -73 405
-45 11 -61 24 -50 41 4 6 147 10 396 10 l389 0 0 -115z"/>
<path d="M3385 6002 c-27 -20 -8 -63 25 -55 27 7 54 39 40 48 -17 11 -54 15
-65 7z"/>
<path d="M3550 1470 l0 -200 25 0 c89 0 169 41 202 104 24 45 22 162 -3 212
-27 53 -89 84 -166 84 l-58 0 0 -200z"/>
</g>
</svg>
